<svg width="26" height="17" viewBox="0 0 26 17" fill="none" xmlns="http://www.w3.org/2000/svg">
<path d="M26 2.67265L24.4333 5.20785C26.2482 7.54772 26.4598 10.6689 24.8809 13.196C22.8218 16.4962 18.3252 17.3915 15.1267 15.1452C14.7523 14.8807 14.4431 14.5348 14.0605 14.2866L12.9496 16.7811L11.8916 14.2866C11.1998 14.8359 10.5406 15.4097 9.71855 15.7759C4.26563 18.2175 -1.45587 13.1064 0.334646 7.42157C0.603223 6.56701 1.09154 5.8386 1.57173 5.09798L0.0620002 2.67672H5.7306C9.65345 -0.847336 16.319 -0.936861 20.2175 2.67672H25.9959L26 2.67265ZM6.23926 4.20679C-0.483292 4.86195 0.265467 15.4178 7.30543 14.8766C14.2599 14.3435 13.5682 3.49059 6.23926 4.20679ZM18.4473 4.20679C11.741 4.89451 12.4613 15.3731 19.5135 14.8766C26.4802 14.3883 25.7762 3.45396 18.4473 4.20679Z" fill="black"/>
<path d="M21.6373 12.0931C18.2638 15.4503 13.1608 10.3229 16.5303 6.95757C19.8793 3.61256 25.0148 8.7318 21.6373 12.0931ZM18.5324 10.0869C19.1916 10.795 20.3799 9.89156 19.7613 9.04921C19.1184 8.17023 17.7592 9.25268 18.5324 10.0869Z" fill="black"/>
<path d="M9.4299 6.97809C12.8075 10.3556 7.60684 15.4871 4.27404 12.0526C0.977876 8.65466 6.08083 3.62902 9.4299 6.97809ZM6.61392 8.76046C5.73494 8.95579 5.97096 10.5957 7.11852 10.2946C8.00563 10.0626 7.77368 8.50002 6.61392 8.76046Z" fill="black"/>
</svg>
